<svg width="83" height="71" viewBox="0 0 83 71" fill="none" xmlns="http://www.w3.org/2000/svg">
<path d="M8 5C8 2.23858 10.2386 0 13 0H50.5C54.6421 0 58 3.35786 58 7.5C58 11.6421 54.6421 15 50.5 15H8V5Z" fill="#043B59"/>
<path d="M75.0257 65.2637C75.0111 68.0251 72.7608 70.2519 69.9994 70.2373L32.4999 70.0394C28.3578 70.0175 25.0177 66.642 25.0396 62.4999C25.0615 58.3578 28.437 55.0177 32.5791 55.0396L75.0785 55.2639L75.0257 65.2637Z" fill="#043B59"/>
<path d="M15 0L15 42.5C15 46.6421 11.6421 50 7.5 50C3.35786 50 0 46.6421 0 42.5L0 10C0 4.47715 4.47715 0 10 0L15 0Z" fill="#043B59"/>
<path d="M67 69.9993L67.2243 27.4999C67.2462 23.3578 70.6217 20.0177 74.7638 20.0396C78.9059 20.0615 82.246 23.437 82.2241 27.5791L82.0526 60.0786C82.0234 65.6014 77.5227 70.0549 71.9999 70.0257L67 69.9993Z" fill="#043B59"/>
<rect x="17" y="17" width="48" height="36" rx="10" fill="#F5A302"/>
</svg>
