<svg width="89" height="74" viewBox="0 0 89 74" fill="none" xmlns="http://www.w3.org/2000/svg">
<path d="M7.83696 63.9093L18.3468 51.1947C30.3658 36.6542 46.9295 26.5828 65.3697 22.6028L80.167 19.409C82.1983 18.9706 84.283 19.8764 85.3487 21.6605C87.0429 24.497 85.4636 28.16 82.238 28.8752L59.3581 33.9483C48.088 36.4472 37.454 41.2423 28.1196 48.0342L11.1737 60.3645C10.4962 60.8575 9.88335 61.4336 9.34955 62.0794L7.83696 63.9093Z" fill="#043B59"/>
<path d="M30.8981 66.7952L32.6798 64.1532C42.0636 50.2393 57.0382 41.0982 73.7026 39.111L75.6479 38.879C77.1575 38.699 78.6317 39.4236 79.4113 40.7287C80.8362 43.1143 79.3435 46.178 76.5866 46.5261L69.9732 47.3611C58.1157 48.8583 46.8508 53.4114 37.2831 60.5741L34.2059 62.8777C33.3157 63.5442 32.5436 64.3553 31.9218 65.2772L30.8981 66.7952Z" fill="#F5A302"/>
<path d="M12.0105 39.0193L13.7923 36.3774C23.176 22.4635 38.1506 13.3223 54.815 11.3351L56.7604 11.1032C58.2699 10.9232 59.7441 11.6478 60.5237 12.9529C61.9487 15.3385 60.456 18.4022 57.6991 18.7502L51.2191 19.5684C39.2814 21.0757 27.9547 25.7134 18.3878 33.0111L14.9056 35.6673C14.0403 36.3274 13.2885 37.1244 12.6799 38.0268L12.0105 39.0193Z" fill="#F5A302"/>
</svg>
